<svg width="128" height="32" viewBox="0 0 128 32" fill="none" xmlns="http://www.w3.org/2000/svg">
<path d="M28.7848 3.99267C27.3574 1.52397 24.7198 0 21.8683 0H12.6176C9.76274 0 7.1251 1.52397 5.70111 3.99267L1.07057 12.0056C-0.356858 14.4778 -0.356858 17.5223 1.07057 19.9944L5.69766 28.0073C7.1251 30.4795 9.76274 32 12.6142 32H21.8649C24.7198 32 27.3574 30.476 28.7814 28.0073L33.4085 19.9944C34.8359 17.5223 34.8359 14.4778 33.4085 12.0056L28.7814 3.99267H28.7848ZM31.0984 23.1734C31.0984 23.6837 30.826 24.156 30.3847 24.4077L17.955 31.5828C17.5136 31.838 16.9689 31.838 16.5275 31.5828L4.09784 24.4112C3.6565 24.156 3.38412 23.6837 3.38412 23.1768V8.82319C3.38412 8.3129 3.6565 7.84053 4.09784 7.58884L16.5275 0.410301C16.9689 0.155156 17.5136 0.155156 17.955 0.410301L30.3847 7.58539C30.826 7.84054 31.0984 8.3129 31.0984 8.81974V23.1734Z" fill="#6E27D5"/>
<path fill-rule="evenodd" clip-rule="evenodd" d="M58.759 8.61035H54.6376L48.568 15.6923V8.61035H45.479V23.4596H48.568V19.5759L51.0408 16.9052L55.0956 23.4596H59.1004L53.1473 14.6663L58.759 8.61035ZM69.8622 20.6061V15.3518C69.8622 12.8388 68.0304 11.6966 64.4835 11.6966C61.3946 11.6966 59.3339 13.0673 59.3339 15.4639H62.3104C62.3104 14.6664 62.6518 13.7526 64.6001 13.7526C66.3153 13.7526 66.8898 14.438 66.8898 15.2355C66.8898 15.8045 66.6608 16.3777 64.3711 16.3777C60.5953 16.3777 59.1049 17.8647 59.1049 20.1451C59.1049 22.0848 60.2497 23.8002 62.9973 23.8002C65.7449 23.8002 66.8898 21.7442 66.8898 21.7442V21.8605C66.8898 23.2312 67.2311 23.4597 67.2311 23.4597H70.4367V23.3475C70.4367 23.3475 69.8622 22.8906 69.8622 20.6061ZM66.8856 18.5501C66.8856 20.7183 65.2828 21.6321 63.909 21.6321C62.6518 21.6321 61.9649 21.063 61.9649 19.9166C61.9649 19.0028 62.6518 18.3175 64.138 18.3175C66.0746 18.3175 66.8036 17.6191 66.8796 17.5464C66.8825 17.5436 66.8856 17.5407 66.8856 17.5407V18.5501ZM74.3242 13.9811C74.3242 13.9811 75.469 11.6966 78.2166 11.6966C80.9642 11.6966 83.3663 13.6488 83.3663 17.7567C83.3663 21.8647 80.9642 23.8086 78.2166 23.8086C75.469 23.8086 74.3242 21.7525 74.3242 21.7525V26.8905H71.3476V12.0413H74.3242V13.9811ZM74.3242 17.7526C74.3242 20.6061 75.8145 21.7484 77.3007 21.7484C78.7911 21.7484 80.2773 20.6061 80.2773 17.7526C80.2773 14.899 78.7911 13.7568 77.3007 13.7568C75.8104 13.7568 74.3242 14.899 74.3242 17.7526ZM90.007 16.3777C87.7173 16.3777 87.376 15.6924 87.376 15.1233C87.376 14.5543 87.9505 13.7526 89.5491 13.7526C91.2642 13.7526 91.8387 14.5501 91.8387 15.4639H94.8153C94.8153 14.2095 94.245 11.6966 89.6656 11.6966C86.1187 11.6966 84.3994 13.2957 84.3994 15.2355C84.3994 17.2915 85.7732 18.4338 89.3201 18.4338C91.7222 18.4338 92.1801 19.1191 92.1801 19.9166C92.1801 20.7141 91.7222 21.7442 89.778 21.7442C88.2918 21.7442 87.2594 21.0589 87.2594 19.6882H84.1705C84.1705 21.7442 85.5442 23.8002 89.778 23.8002C93.5539 23.8002 95.2732 21.9727 95.2732 19.8045C95.2732 17.1752 93.3291 16.3777 90.007 16.3777ZM97.908 8.61035H100.885V12.0371H103.403V14.3216H100.885V20.145C100.885 21.1709 101.23 21.3994 102.029 21.3994C102.487 21.3994 103.403 21.2831 103.403 21.2831V23.4554C103.403 23.4554 101.913 23.6839 100.885 23.6839C98.4783 23.6839 97.908 22.8864 97.908 20.145V14.3216H95.6183V12.0371H97.908V8.61035ZM115.077 20.6061V15.3518C115.077 12.8388 113.245 11.6966 109.698 11.6966C106.609 11.6966 104.548 13.0673 104.548 15.4639H107.525C107.525 14.6664 107.866 13.7526 109.814 13.7526C111.53 13.7526 112.104 14.438 112.104 15.2355C112.104 15.8045 111.875 16.3777 109.585 16.3777C105.81 16.3777 104.319 17.8647 104.319 20.1451C104.319 22.0848 105.464 23.8002 108.212 23.8002C110.959 23.8002 112.104 21.7442 112.104 21.7442V21.8605C112.104 23.2312 112.446 23.4597 112.446 23.4597H115.651V23.3475C115.651 23.3475 115.081 22.8906 115.081 20.6061H115.077ZM112.1 18.5501C112.1 20.7183 110.497 21.6321 109.123 21.6321C107.866 21.6321 107.179 21.063 107.179 19.9166C107.179 19.0028 107.866 18.3175 109.352 18.3175C111.289 18.3175 112.018 17.6191 112.094 17.5464C112.097 17.5436 112.1 17.5407 112.1 17.5407V18.5501ZM119.544 14.2096C119.544 14.2096 121.146 11.6966 123.665 11.6966C126.413 11.6966 127.553 13.4037 127.553 15.9167V23.4555H124.577V16.7183C124.577 14.7786 123.777 14.0932 122.404 14.0932C121.03 14.0932 119.544 15.1233 119.544 17.7484V23.4597H116.567V12.0372H119.544V14.2096Z" fill="white"/>
</svg>
